<svg id="visual" viewBox="0 0 900 600" width="900" height="600" xmlns="http://www.w3.org/2000/svg" xmlns:xlink="http://www.w3.org/1999/xlink" version="1.1"><rect x="0" y="0" width="900" height="600" fill="#05386B"></rect><path d="M0 274L21.5 280.7C43 287.3 86 300.7 128.8 308.2C171.7 315.7 214.3 317.3 257.2 312.5C300 307.7 343 296.3 385.8 292.7C428.7 289 471.3 293 514.2 298.3C557 303.7 600 310.3 642.8 313.8C685.7 317.3 728.3 317.7 771.2 316.5C814 315.3 857 312.7 878.5 311.3L900 310L900 601L878.5 601C857 601 814 601 771.2 601C728.3 601 685.7 601 642.8 601C600 601 557 601 514.2 601C471.3 601 428.7 601 385.8 601C343 601 300 601 257.2 601C214.3 601 171.7 601 128.8 601C86 601 43 601 21.5 601L0 601Z" fill="#05386b"></path><path d="M0 330L21.5 324.7C43 319.3 86 308.7 128.8 302.8C171.7 297 214.3 296 257.2 296.5C300 297 343 299 385.8 312.8C428.7 326.7 471.3 352.3 514.2 353.7C557 355 600 332 642.8 323C685.7 314 728.3 319 771.2 319.3C814 319.7 857 315.3 878.5 313.2L900 311L900 601L878.5 601C857 601 814 601 771.2 601C728.3 601 685.7 601 642.8 601C600 601 557 601 514.2 601C471.3 601 428.7 601 385.8 601C343 601 300 601 257.2 601C214.3 601 171.7 601 128.8 601C86 601 43 601 21.5 601L0 601Z" fill="#014f83"></path><path d="M0 419L21.5 415.2C43 411.3 86 403.7 128.8 395.2C171.7 386.7 214.3 377.3 257.2 373C300 368.7 343 369.3 385.8 369.8C428.7 370.3 471.3 370.7 514.2 363.7C557 356.7 600 342.3 642.8 347C685.7 351.7 728.3 375.3 771.2 381C814 386.7 857 374.3 878.5 368.2L900 362L900 601L878.5 601C857 601 814 601 771.2 601C728.3 601 685.7 601 642.8 601C600 601 557 601 514.2 601C471.3 601 428.7 601 385.8 601C343 601 300 601 257.2 601C214.3 601 171.7 601 128.8 601C86 601 43 601 21.5 601L0 601Z" fill="#00669b"></path><path d="M0 380L21.5 390.3C43 400.7 86 421.3 128.8 425.8C171.7 430.3 214.3 418.7 257.2 414.8C300 411 343 415 385.8 410.3C428.7 405.7 471.3 392.3 514.2 391.2C557 390 600 401 642.8 404.2C685.7 407.3 728.3 402.7 771.2 410.3C814 418 857 438 878.5 448L900 458L900 601L878.5 601C857 601 814 601 771.2 601C728.3 601 685.7 601 642.8 601C600 601 557 601 514.2 601C471.3 601 428.7 601 385.8 601C343 601 300 601 257.2 601C214.3 601 171.7 601 128.8 601C86 601 43 601 21.5 601L0 601Z" fill="#007fb2"></path><path d="M0 440L21.5 436.8C43 433.7 86 427.3 128.8 422C171.7 416.7 214.3 412.3 257.2 415.8C300 419.3 343 430.7 385.8 436C428.7 441.3 471.3 440.7 514.2 438.3C557 436 600 432 642.8 431.3C685.7 430.7 728.3 433.3 771.2 432.8C814 432.3 857 428.7 878.5 426.8L900 425L900 601L878.5 601C857 601 814 601 771.2 601C728.3 601 685.7 601 642.8 601C600 601 557 601 514.2 601C471.3 601 428.7 601 385.8 601C343 601 300 601 257.2 601C214.3 601 171.7 601 128.8 601C86 601 43 601 21.5 601L0 601Z" fill="#0098c8"></path><path d="M0 506L21.5 505.3C43 504.7 86 503.3 128.8 497.3C171.7 491.3 214.3 480.7 257.2 475.7C300 470.7 343 471.3 385.8 469.2C428.7 467 471.3 462 514.2 467.2C557 472.3 600 487.7 642.8 493C685.7 498.3 728.3 493.7 771.2 492.3C814 491 857 493 878.5 494L900 495L900 601L878.5 601C857 601 814 601 771.2 601C728.3 601 685.7 601 642.8 601C600 601 557 601 514.2 601C471.3 601 428.7 601 385.8 601C343 601 300 601 257.2 601C214.3 601 171.7 601 128.8 601C86 601 43 601 21.5 601L0 601Z" fill="#00b1dc"></path><path d="M0 522L21.5 523.2C43 524.3 86 526.7 128.8 524.5C171.7 522.3 214.3 515.7 257.2 513.8C300 512 343 515 385.8 521C428.7 527 471.3 536 514.2 535.7C557 535.3 600 525.7 642.8 523.3C685.7 521 728.3 526 771.2 521.7C814 517.3 857 503.7 878.5 496.8L900 490L900 601L878.5 601C857 601 814 601 771.2 601C728.3 601 685.7 601 642.8 601C600 601 557 601 514.2 601C471.3 601 428.7 601 385.8 601C343 601 300 601 257.2 601C214.3 601 171.7 601 128.8 601C86 601 43 601 21.5 601L0 601Z" fill="#13ccef"></path><path d="M0 546L21.5 546C43 546 86 546 128.8 548.2C171.7 550.3 214.3 554.7 257.2 557.2C300 559.7 343 560.3 385.8 558.3C428.7 556.3 471.3 551.7 514.2 549.7C557 547.7 600 548.3 642.8 549C685.7 549.7 728.3 550.3 771.2 552C814 553.7 857 556.3 878.5 557.7L900 559L900 601L878.5 601C857 601 814 601 771.2 601C728.3 601 685.7 601 642.8 601C600 601 557 601 514.2 601C471.3 601 428.7 601 385.8 601C343 601 300 601 257.2 601C214.3 601 171.7 601 128.8 601C86 601 43 601 21.5 601L0 601Z" fill="#32e6ff"></path></svg>