<svg id="visual" viewBox="0 0 900 600" width="900" height="600" xmlns="http://www.w3.org/2000/svg" xmlns:xlink="http://www.w3.org/1999/xlink" version="1.1"><rect width="900" height="600" fill="#05386B"></rect><g><g transform="translate(259 262)"><path d="M0 -13.1L11.4 -6.6L11.4 6.6L0 13.1L-11.4 6.6L-11.4 -6.6Z" fill="none" stroke="#32E6FF" stroke-width="2"></path></g><g transform="translate(848 287)"><path d="M0 -11L9.5 -5.5L9.5 5.5L0 11L-9.5 5.5L-9.5 -5.5Z" fill="none" stroke="#32E6FF" stroke-width="2"></path></g><g transform="translate(138 144)"><path d="M0 -5L4.3 -2.5L4.3 2.5L0 5L-4.3 2.5L-4.3 -2.5Z" stroke="#32E6FF" fill="none" stroke-width="2"></path></g><g transform="translate(668 26)"><path d="M0 -7L6.1 -3.5L6.1 3.5L0 7L-6.1 3.5L-6.1 -3.5Z" stroke="#32E6FF" fill="none" stroke-width="2"></path></g><g transform="translate(727 331)"><path d="M0 -3L2.6 -1.5L2.6 1.5L0 3L-2.6 1.5L-2.6 -1.5Z" stroke="#32E6FF" fill="none" stroke-width="2"></path></g><g transform="translate(268 412)"><path d="M0 -11L9.5 -5.5L9.5 5.5L0 11L-9.5 5.5L-9.5 -5.5Z" stroke="#32E6FF" fill="none" stroke-width="2"></path></g><g transform="translate(835 334)"><path d="M0 -8L6.9 -4L6.9 4L0 8L-6.9 4L-6.9 -4Z" stroke="#32E6FF" fill="none" stroke-width="2"></path></g><g transform="translate(41 364)"><path d="M0 -8L6.9 -4L6.9 4L0 8L-6.9 4L-6.9 -4Z" stroke="#32E6FF" fill="none" stroke-width="2"></path></g><g transform="translate(328 518)"><path d="M0 -4L3.5 -2L3.5 2L0 4L-3.5 2L-3.5 -2Z" stroke="#32E6FF" fill="none" stroke-width="2"></path></g><g transform="translate(490 135)"><path d="M0 -11L9.5 -5.5L9.5 5.5L0 11L-9.5 5.5L-9.5 -5.5Z" stroke="#32E6FF" fill="none" stroke-width="2"></path></g></g></svg>